<?xml version="1.0" encoding="utf-8"?>
<!-- Generator: Adobe Illustrator 27.5.0, SVG Export Plug-In . SVG Version: 6.00 Build 0)  -->
<svg version="1.1" id="katman_1" xmlns="http://www.w3.org/2000/svg" xmlns:xlink="http://www.w3.org/1999/xlink" x="0px" y="0px"
	 viewBox="0 0 841.89 595.28" style="enable-background:new 0 0 841.89 595.28;" xml:space="preserve">
<style type="text/css">
	.st0{fill-rule:evenodd;clip-rule:evenodd;fill:#2D3640;}
	.st1{fill:#2D3640;}
</style>
<path class="st0" d="M157.38,266.88c-8.94,0-16.21,1.8-21.81,5.39l10.21-58.02h-34.02l-21.21,120c-0.39,2.17-0.6,4.37-0.6,6.57
	c0,8.11,3.07,14.43,9.21,18.94c7.73,5.71,18.84,8.57,33.3,8.57c14.47,0,26.48-3.42,36.04-10.26c9.54-6.85,15.44-16.65,17.71-29.41
	l4.02-22.32c0.64-3.15,0.98-6.36,1-9.56c0-7.44-2-13.75-5.99-18.94c-5.34-7.31-14.61-10.96-27.82-10.96 M221.2,266.84
	c12.22,0,20.15,2.86,23.77,8.56c2.36,3.61,3.63,7.83,3.63,12.14c0.03,3.78-0.24,7.57-0.82,11.31l-12.08,68.91h-34.24l11.28-64.22
	c0.13-0.74,0.19-1.49,0.21-2.24c0.01-3.67-2-5.5-6.03-5.5c-2.88-0.05-5.73,0.65-8.26,2.03l1.01-23.04
	C205.97,269.49,213.15,266.84,221.2,266.84z M142.51,295.39c5.54,0,9.14,1.09,10.81,3.29c1.66,2.19,2.5,4.26,2.5,6.18
	c0.02,1.5-0.05,3-0.21,4.49l-2.6,14.95c-1.87,10.24-7.94,15.36-18.21,15.35c-5.07,0-8.41-1.99-10.01-5.98l5.81-33.29
	C133,297.06,136.97,295.4,142.51,295.39z M237.35,214.2c11.2,0,16.8,4.93,16.8,14.75c0,8.38-1.9,14.49-5.7,18.34
	c-3.8,3.86-9.76,5.78-17.9,5.78c-11.07,0-16.6-4.79-16.6-14.35c0-8.51,1.9-14.72,5.7-18.64C223.45,216.16,229.34,214.2,237.35,214.2
	z"/>
<g>
	<g>
		<path class="st1" d="M463.6,345.75l-1.99,18.61c-5.54,2.66-12.41,3.99-20.17,3.99c-18.61,0-27.03-7.53-24.37-26.81l3.77-26.15
			c1.99-14.85-0.22-21.27-8.42-21.27c-9.53,0-16.62,8.64-21.27,25.7l-6.43,45.64h-33.68l13.52-96.83h31.24l-1.33,16.18
			c8.2-12.63,19.28-18.83,33.24-18.83c21.93,0,31.69,15.51,28.14,39.22l-3.99,29.91c-0.66,6.65,0.89,10.42,4.65,11.08
			C458.06,346.41,460.28,346.19,463.6,345.75z"/>
		<path class="st1" d="M472.9,335.78l17.73-124.53h34.34l-17.28,121.64c-1.11,6.65,0.22,10.42,3.99,11.08
			c2,0.66,4.43,0.44,7.09-0.44l-1.55,19.94c-6.2,3.32-13.74,4.88-22.82,4.88C476.89,368.35,469.13,360.81,472.9,335.78z"/>
		<path class="st1" d="M631.99,345.3l-2.21,18.39c-5.98,3.1-13.07,4.65-21.72,4.65c-11.3,0-18.39-5.76-21.05-17.06
			c-8.2,11.3-18.83,16.84-31.69,16.84c-18.61,0-29.03-10.42-29.03-30.8c0-1.77,0.22-5.1,0.89-10.19l8.2-58.5h34.35l-6.87,50.52
			c-0.44,3.1-0.66,5.76-0.66,8.2c0,8.86,2.88,13.3,8.86,13.3c5.98,0,11.52-3.99,16.39-12.19l8.64-59.82h34.35l-9.31,64.48
			c-1.11,7.98,0,12.19,3.55,12.63C627.56,345.97,630,345.97,631.99,345.3z"/>
		<path class="st1" d="M742.78,342.86l-7.98,25.48c-29.25-0.22-48.53-14.18-54.73-38.78l-3.77,0.44l-4.88,35.45h-34.34l21.49-154.22
			h34.34l-9.53,68.47c9.53-9.31,20.39-13.96,32.35-13.96c15.73,0,23.93,8.42,23.93,20.83c0,17.95-11.74,30.58-35.01,37.89
			C713.53,335.11,729.71,341.76,742.78,342.86z M678.74,312.29c15.73-1.77,27.03-7.31,27.03-15.51c0-4.21-2.22-6.43-6.87-6.43
			c-8.64,0-15.29,7.98-19.5,17.95L678.74,312.29z"/>
	</g>
</g>
<path class="st0" d="M324.91,271.16h-30.69c-16.9,0-32.96,14.49-35.87,32.37l-5.27,32.45c-2.9,17.88,8.45,32.37,25.35,32.37h30.69
	c16.91,0,32.96-14.49,35.87-32.37l5.27-32.45C353.16,285.65,341.81,271.16,324.91,271.16z M316.85,308.39l-4.39,22.73
	c-1.25,6.48-8.08,11.73-15.26,11.73c-7.17,0-11.97-5.25-10.72-11.73l4.39-22.73c1.25-6.48,8.08-11.73,15.26-11.73
	S318.11,301.91,316.85,308.39z"/>
</svg>
