<?xml version="1.0" encoding="iso-8859-1"?>
<!-- Uploaded to: SVG Repo, www.svgrepo.com, Generator: SVG Repo Mixer Tools -->
<!DOCTYPE svg PUBLIC "-//W3C//DTD SVG 1.1//EN" "http://www.w3.org/Graphics/SVG/1.1/DTD/svg11.dtd">
<svg fill="#000000" version="1.1" id="Capa_1" xmlns="http://www.w3.org/2000/svg" xmlns:xlink="http://www.w3.org/1999/xlink" 
	 width="800px" height="800px" viewBox="0 0 56.48 56.48" xml:space="preserve"
	>
<g>
	<path d="M42.857,40.89c0,0.406-0.217,0.561-0.664,0.561h-1.004v-1.098h1.066C42.76,40.353,42.857,40.673,42.857,40.89z
		 M32.117,31.366h-2.244v2.306h2.111c0.938,0,1.395-0.324,1.395-1.177C33.379,32.039,33.176,31.366,32.117,31.366z M56.48,11.393
		v33.695c0,0.803-0.65,1.454-1.454,1.454H1.454C0.65,46.542,0,45.89,0,45.087V11.393c0-0.803,0.65-1.454,1.454-1.454h53.572
		C55.83,9.939,56.48,10.59,56.48,11.393z M36.781,38.501h6.547v-1.525h-4.779v-2.235h4.203v-1.524h-4.203v-1.813h4.576v-1.526
		h-6.344V38.501z M32.917,21.213c-0.112,0.146-0.258,0.273-0.386,0.411c-0.243,0.284-0.547,0.518-0.848,0.748
		c-0.284,0.242-0.641,0.409-0.942,0.609c-0.347,0.151-0.651,0.337-0.993,0.449c-0.326,0.13-0.648,0.241-0.965,0.322
		c-0.306,0.1-0.613,0.148-0.884,0.214c-0.173,0.031-0.333,0.057-0.486,0.08c0.015-0.047,0.034-0.091,0.05-0.138
		c0.145-0.438,0.254-0.896,0.326-1.377c0.03-0.244,0.055-0.491,0.072-0.743c0.014-0.255,0.009-0.52-0.017-0.796
		c-0.257,0.107-0.492,0.228-0.713,0.357c-0.214,0.133-0.42,0.271-0.621,0.414c-0.392,0.289-0.745,0.6-1.064,0.932
		c-0.645,0.661-1.171,1.394-1.609,2.179l-0.056,0.097c-0.27,0.488-0.217,1.113,0.177,1.551c0.52,0.577,1.09,1.114,1.752,1.573
		c0.329,0.23,0.681,0.444,1.064,0.633c0.383,0.186,0.778,0.363,1.248,0.479c-0.024-0.482-0.122-0.904-0.23-1.317
		c-0.106-0.401-0.244-0.776-0.403-1.136c0.351-0.114,0.775-0.272,1.254-0.475c0.309-0.148,0.648-0.286,0.988-0.483
		c0.346-0.178,0.696-0.393,1.049-0.631c0.361-0.217,0.694-0.522,1.047-0.787c0.318-0.319,0.668-0.601,0.949-0.961
		c0.291-0.347,0.573-0.693,0.789-1.083c0.11-0.19,0.236-0.367,0.327-0.562c0.085-0.197,0.169-0.391,0.249-0.583
		c0.184-0.37,0.262-0.765,0.354-1.125c0.109-0.356,0.144-0.705,0.166-1.025c0.02-0.32,0.076-0.605,0.054-0.863
		c-0.017-0.255-0.028-0.479-0.04-0.662c-0.021-0.362-0.034-0.569-0.034-0.569s-0.032,0.205-0.09,0.564
		c-0.026,0.177-0.062,0.392-0.101,0.639c-0.03,0.246-0.149,0.509-0.229,0.799c-0.084,0.29-0.185,0.598-0.354,0.898
		c-0.155,0.304-0.293,0.63-0.528,0.917C33.131,20.911,33.024,21.061,32.917,21.213z M21.544,22.685
		c0.008,0.256,0.015,0.479,0.02,0.663c0.012,0.363,0.019,0.57,0.019,0.57s0.038-0.204,0.105-0.562
		c0.033-0.176,0.074-0.39,0.12-0.635c0.038-0.245,0.164-0.505,0.253-0.792c0.094-0.288,0.202-0.593,0.383-0.887
		c0.164-0.3,0.312-0.622,0.555-0.902c0.109-0.144,0.22-0.291,0.332-0.438c0.117-0.144,0.267-0.266,0.396-0.4
		c0.253-0.277,0.563-0.501,0.87-0.723c0.293-0.233,0.651-0.39,0.96-0.581c0.351-0.141,0.661-0.318,1.007-0.419
		c0.331-0.12,0.655-0.221,0.974-0.293c0.309-0.09,0.618-0.13,0.891-0.188c0.174-0.026,0.334-0.047,0.488-0.065
		c-0.018,0.046-0.037,0.09-0.054,0.136c-0.158,0.434-0.28,0.889-0.367,1.367c-0.038,0.243-0.07,0.489-0.096,0.741
		c-0.02,0.254-0.023,0.519-0.006,0.797c0.26-0.1,0.498-0.213,0.723-0.336c0.219-0.127,0.43-0.259,0.635-0.394
		c0.398-0.277,0.762-0.578,1.092-0.901c0.662-0.642,1.211-1.358,1.674-2.13l0.058-0.096c0.284-0.479,0.251-1.106-0.13-1.555
		c-0.503-0.592-1.057-1.146-1.705-1.625c-0.322-0.242-0.667-0.465-1.044-0.665c-0.378-0.197-0.769-0.387-1.234-0.517
		c0.01,0.483,0.095,0.908,0.191,1.324c0.095,0.404,0.222,0.783,0.37,1.147c-0.354,0.104-0.784,0.25-1.268,0.438
		c-0.313,0.139-0.657,0.267-1.002,0.453c-0.352,0.167-0.708,0.372-1.068,0.6c-0.367,0.207-0.709,0.501-1.068,0.755
		c-0.327,0.31-0.687,0.58-0.978,0.933c-0.301,0.338-0.595,0.675-0.821,1.059c-0.116,0.187-0.248,0.36-0.345,0.551
		c-0.091,0.194-0.179,0.387-0.266,0.575c-0.195,0.365-0.284,0.757-0.387,1.114c-0.12,0.353-0.164,0.7-0.196,1.02
		C21.594,22.143,21.528,22.426,21.544,22.685z M16.426,39.644h-3.338v0.727h1.24v3.377h0.855v-3.377h1.242L16.426,39.644
		L16.426,39.644z M16.818,38.501c0.926-4.445,1.068-5.068,1.334-6.727h0.023c0.287,1.658,0.445,2.499,1.334,6.727h1.729l2.428-8.625
		H21.84c-1.119,4.745-1.262,5.49-1.406,6.307H20.41c-0.191-1.116-0.277-1.572-1.285-6.307h-1.91
		c-0.914,4.529-1.045,5.406-1.201,6.307H15.99c-0.156-0.984-0.266-1.584-1.371-6.307h-1.92l2.438,8.625H16.818z M20.373,43.638
		c-0.182-0.067-0.182-0.217-0.182-0.816c0-0.766-0.184-0.893-0.521-1.04c0.406-0.138,0.635-0.526,0.635-0.978
		c0-0.354-0.199-1.162-1.291-1.162h-2.076v4.104h0.842V42.14h0.885c0.635,0,0.67,0.219,0.67,0.777c0,0.424,0.033,0.635,0.09,0.829
		h0.949L20.373,43.638L20.373,43.638z M24.533,43.748l-1.445-4.104h-0.99l-1.463,4.104h0.904l0.285-0.846h1.514l0.264,0.846H24.533z
		 M24.621,38.501h1.801v-8.625h-1.801V38.501z M28.39,39.644h-0.8v2.857h-0.01l-1.631-2.857h-0.902v4.104h0.799v-2.926h0.012
		l1.674,2.926h0.859L28.39,39.644L28.39,39.644z M32.379,42.513c0-0.736-0.514-0.965-1.076-1.103l-0.998-0.246
		c-0.172-0.04-0.436-0.108-0.436-0.429c0-0.372,0.391-0.491,0.715-0.491c0.75,0,0.816,0.435,0.842,0.617h0.82
		c-0.006-0.503-0.342-1.326-1.6-1.326c-1.332,0-1.576,0.806-1.576,1.263c0,0.904,0.639,1.053,1.303,1.207l0.439,0.103
		c0.436,0.103,0.744,0.188,0.744,0.509c0,0.434-0.453,0.531-0.857,0.531c-0.75,0-0.865-0.434-0.871-0.663h-0.82
		c0,0.508,0.256,1.372,1.754,1.372C31.121,43.857,32.379,43.748,32.379,42.513z M33.139,36.759c0,0.89,0.072,1.334,0.192,1.742
		h1.992v-0.229c-0.385-0.143-0.385-0.456-0.385-1.717c0-1.609-0.384-1.875-1.093-2.188c0.854-0.288,1.334-1.104,1.334-2.054
		c0-0.745-0.422-2.439-2.717-2.439h-4.359V38.5h1.768v-3.376h1.861C33.066,35.125,33.139,35.582,33.139,36.759z M35.955,39.644
		h-2.92v4.104h0.857v-1.726h1.805v-0.726h-1.805V40.37h2.062V39.644z M39.646,43.022h-2.275v-1.063h2v-0.726h-2V40.37h2.178v-0.728
		h-3.018v4.104h3.115V43.022z M43.781,43.638C43.6,43.571,43.6,43.421,43.6,42.822c0-0.766-0.185-0.893-0.521-1.04
		c0.404-0.138,0.636-0.526,0.636-0.978c0-0.354-0.201-1.162-1.293-1.162h-2.074v4.104h0.842V42.14h0.885
		c0.633,0,0.67,0.219,0.67,0.777c0,0.424,0.033,0.635,0.09,0.829h0.947V43.638z M22.58,40.571l-0.527,1.623H23.1l-0.512-1.623H22.58
		z M18.847,40.353h-1.068v1.098h1.004c0.447,0,0.664-0.154,0.664-0.561C19.447,40.673,19.349,40.353,18.847,40.353z"/>
</g>
</svg>